<?xml version="1.0" encoding="utf-8"?>
<!-- Generator: Adobe Illustrator 16.0.0, SVG Export Plug-In . SVG Version: 6.00 Build 0)  -->
<!DOCTYPE svg PUBLIC "-//W3C//DTD SVG 1.1//EN" "http://www.w3.org/Graphics/SVG/1.1/DTD/svg11.dtd">
<svg version="1.1" id="Capa_1" xmlns="http://www.w3.org/2000/svg" xmlns:xlink="http://www.w3.org/1999/xlink" x="0px" y="0px"
	 width="471.361px" height="471.363px" viewBox="0 0 471.361 471.363" enable-background="new 0 0 471.361 471.363"
	 xml:space="preserve">
<g>
	<path d="M236.666,8.252C111.176,8.252,9.444,109.983,9.444,235.475c0,125.492,101.732,227.222,227.223,227.222
		c125.491,0,227.222-101.73,227.222-227.222C463.888,109.983,362.157,8.252,236.666,8.252z M435.115,235.475
		c0,48.865-17.672,93.595-46.959,128.175L108.49,83.985c34.58-29.288,79.311-46.959,128.176-46.959
		C346.267,37.026,435.115,125.874,435.115,235.475z M38.218,235.475c0-48.865,17.672-93.596,46.959-128.176l279.666,279.666
		c-34.58,29.287-79.312,46.959-128.177,46.959C127.065,433.923,38.218,345.076,38.218,235.475z"/>
	<polygon points="87.818,143.068 177.473,232.52 87.818,321.972 114.714,348.869 214.219,249.189 97.957,132.928 	"/>
	<polygon points="279.054,314.025 222.505,314.025 222.505,354.779 319.807,354.779 	"/>
	<polygon points="385.516,314.025 353.381,314.025 385.516,346.16 	"/>
</g>
</svg>
