<?xml version="1.0" encoding="utf-8"?>
<!-- Generator: Adobe Illustrator 16.0.0, SVG Export Plug-In . SVG Version: 6.00 Build 0)  -->
<!DOCTYPE svg PUBLIC "-//W3C//DTD SVG 1.1//EN" "http://www.w3.org/Graphics/SVG/1.1/DTD/svg11.dtd">
<svg version="1.1"
	 id="svg4136" xmlns:dc="http://purl.org/dc/elements/1.1/" xmlns:cc="http://creativecommons.org/ns#" xmlns:rdf="http://www.w3.org/1999/02/22-rdf-syntax-ns#" xmlns:svg="http://www.w3.org/2000/svg" xmlns:sodipodi="http://sodipodi.sourceforge.net/DTD/sodipodi-0.dtd" xmlns:inkscape="http://www.inkscape.org/namespaces/inkscape" sodipodi:docname="mosquitto-logo-only.svg" inkscape:version="0.91 r13725"
	 xmlns="http://www.w3.org/2000/svg" xmlns:xlink="http://www.w3.org/1999/xlink" x="0px" y="0px" width="278.232px"
	 height="278.232px" viewBox="0 0 278.232 278.232" enable-background="new 0 0 278.232 278.232" xml:space="preserve">
<sodipodi:namedview  fit-margin-left="0" fit-margin-top="0" inkscape:cy="84.142768" inkscape:cx="67.324802" inkscape:zoom="1.7899063" showgrid="false" guidetolerance="10" gridtolerance="10" objecttolerance="10" bordercolor="#666666" pagecolor="#ffffff" borderopacity="1" id="namedview4138" fit-margin-bottom="0" fit-margin-right="0" inkscape:current-layer="g4144" inkscape:window-maximized="1" inkscape:window-y="0" inkscape:window-x="1280" inkscape:window-height="995" inkscape:window-width="1280" inkscape:pageshadow="2" inkscape:pageopacity="0">
	</sodipodi:namedview>
<g id="g4144" transform="matrix(1.25,0,0,-1.25,-387.06488,575.71439)" inkscape:label="mosquitto" inkscape:groupmode="layer">
	<g id="g3377" transform="translate(0,26.44071)">
		<path id="path4160" inkscape:connector-curvature="0" d="M420.945,237.985l3.103,42.395l2.52,34.425
			c5.191,2.194,8.835,7.334,8.835,13.323c0,7.984-6.474,14.459-14.458,14.459c-7.984,0-14.459-6.474-14.459-14.459
			c0-5.989,3.644-11.13,8.836-13.323l2.519-34.425L420.945,237.985z"/>
		<path id="path4162" inkscape:connector-curvature="0" d="M322.201,328.184c0-24.458,8.942-47.352,24.451-65.044l-9.347-8.379
			c-17.502,19.916-27.652,45.783-27.652,73.423c0,31.144,12.801,59.304,33.426,79.506l0.47-0.421l27.648-24.785
			c-25.984-23.82-31.366-62.558-13.287-92.4l9.545,8.555c-13.781,24.896-8.53,56.342,13.139,75.42l9.467-8.484l8.42-7.549
			l8.734-7.829c-3.266-2.048-6.043-4.804-8.115-8.054c-2.56-4.016-4.045-8.784-4.045-13.898c0-11.4,7.373-21.082,17.608-24.538
			l0.881-12.03c-17.054,3.434-29.902,18.503-29.902,36.568c0,8.044,2.548,15.494,6.88,21.587l-8.356,7.492l-0.031,0.028
			c-13.698-18.195-12.852-43.456,1.898-60.705l-28.034-25.13c-27.6,31.607-28.388,78.519-1.953,111.014l-9.352,8.384
			c-12.907-15.67-21.08-35.385-22.325-56.955l-0.057-0.064l0.051-0.045C322.254,331.976,322.201,330.086,322.201,328.184
			L322.201,328.184z M429.229,303.708c10.236,3.455,17.608,13.137,17.608,24.538c0,5.113-1.484,9.882-4.044,13.898
			c-2.072,3.249-4.848,6.006-8.114,8.054l8.733,7.829l8.42,7.548l-0.001,0.001l9.466,8.484c21.67-19.078,26.921-50.524,13.14-75.42
			l9.544-8.555c18.079,29.842,12.698,68.58-13.286,92.4l27.648,24.786l0.469,0.42c20.625-20.202,33.426-48.362,33.426-79.506
			c0-27.64-10.152-53.506-27.652-73.423l-9.347,8.379c15.509,17.691,24.451,40.586,24.451,65.044c0,1.902-0.054,3.792-0.16,5.668
			l0.051,0.045l-0.057,0.064c-1.245,21.57-9.418,41.284-22.326,56.955l-9.351-8.384c26.435-32.495,25.647-79.407-1.954-111.014
			l-28.034,25.13c14.752,17.248,15.598,42.509,1.899,60.705l-0.031-0.028l-8.356-7.492c4.332-6.094,6.879-13.545,6.879-21.587
			c0-18.065-12.847-33.133-29.901-36.569L429.229,303.708L429.229,303.708z"/>
	</g>
</g>
</svg>
