<?xml version="1.0" encoding="utf-8"?>
<!-- Generator: Adobe Illustrator 16.0.0, SVG Export Plug-In . SVG Version: 6.00 Build 0)  -->
<!DOCTYPE svg PUBLIC "-//W3C//DTD SVG 1.1//EN" "http://www.w3.org/Graphics/SVG/1.1/DTD/svg11.dtd">
<svg version="1.1" id="Layer_1" xmlns="http://www.w3.org/2000/svg" xmlns:xlink="http://www.w3.org/1999/xlink" x="0px" y="0px"
	 width="512px" height="512px" viewBox="0 0 512 512" enable-background="new 0 0 512 512" xml:space="preserve">
<g>
	<g>
		<path fill="#FFFFFF" d="M111.598,200.902c-8.921,8.921-8.921,23.44,0,32.449c8.921,8.921,23.44,8.921,32.449,0
			c61.749-61.749,162.244-61.749,223.994,0c4.461,4.46,10.32,6.734,16.18,6.734c5.86,0,11.721-2.274,16.182-6.734
			c8.921-8.922,8.921-23.44,0-32.449C320.811,121.223,191.19,121.223,111.598,200.902z"/>
		<path fill="#FFFFFF" d="M173.523,252.826c-8.921,8.922-8.921,23.441,0,32.449c8.921,8.922,23.44,8.922,32.449,0
			c27.551-27.639,72.507-27.639,100.058,0c4.461,4.461,10.32,6.735,16.181,6.735c5.859,0,11.72-2.274,16.181-6.735
			c8.921-8.921,8.921-23.44,0-32.36C292.997,207.346,219.003,207.346,173.523,252.826z"/>
		<circle fill="#FFFFFF" cx="256" cy="325.218" r="30.524"/>
		<path fill="#FFFFFF" d="M463.288,147.929c-114.314-114.227-300.262-114.227-414.576,0c-8.921,8.921-8.921,23.44,0,32.449
			c8.921,8.921,23.44,8.921,32.449,0c96.385-96.473,253.294-96.473,349.766,0c4.46,4.46,10.32,6.734,16.181,6.734
			s11.721-2.274,16.181-6.734C472.209,171.457,472.209,156.938,463.288,147.929z"/>
	</g>
</g>
<path fill="#FFFFFF" d="M151.392,381.92h-44.365c-1.888,0-3.412,1.528-3.412,3.411H69.487c-1.887,0-3.414,1.529-3.414,3.414v10.238
	c-1.887,0-3.414,1.529-3.414,3.412v27.304c0,1.888,1.527,3.411,3.414,3.411v10.238c0,1.887,1.527,3.412,3.414,3.412h34.128
	c0,1.887,1.524,3.414,3.412,3.414h44.362l45.371-13.801c1.435-0.441,2.408-1.762,2.408-3.263v-6.826l76.812,0.001v-0.001h37.488
	v6.826c0,1.499,0.976,2.821,2.408,3.262l45.368,13.802h44.365c1.888,0,3.412-1.528,3.412-3.411h34.128
	c1.887,0,3.414-1.529,3.414-3.414v-10.238c1.887,0,3.414-1.529,3.414-3.412v-27.304c0-1.888-1.527-3.411-3.414-3.411v-10.238
	c0-1.887-1.527-3.412-3.414-3.412h-34.128c0-1.887-1.524-3.414-3.412-3.414h-44.362l-45.371,13.801
	c-1.435,0.441-2.408,1.762-2.408,3.263v6.826l-56.812-0.001v0.001h-57.488v-6.826c0-1.499-0.976-2.821-2.408-3.262l-11.243-3.459"/>
</svg>
