<?xml version="1.0" encoding="UTF-8"?>
<svg xmlns="http://www.w3.org/2000/svg" xmlns:xlink="http://www.w3.org/1999/xlink" width="64pt" height="64pt" viewBox="0 0 64 64" version="1.1">
<g id="surface1">
<path style=" stroke:none;fill-rule:nonzero;fill:rgb(0%,0%,0%);fill-opacity:1;" d="M 28.75 18.402344 L 34.6875 18.402344 L 34.6875 23.800781 L 28.75 23.800781 Z M 28.75 18.402344 "/>
<path style=" stroke:none;fill-rule:nonzero;fill:rgb(0%,0%,0%);fill-opacity:1;" d="M 28.75 24.890625 L 34.6875 24.890625 L 34.6875 30.226562 L 28.75 30.226562 Z M 28.75 24.890625 "/>
<path style=" stroke:none;fill-rule:nonzero;fill:rgb(0%,0%,0%);fill-opacity:1;" d="M 21.734375 18.402344 L 27.671875 18.402344 L 27.671875 23.800781 L 21.734375 23.800781 Z M 21.734375 18.402344 "/>
<path style=" stroke:none;fill-rule:nonzero;fill:rgb(0%,0%,0%);fill-opacity:1;" d="M 35.773438 24.878906 L 41.714844 24.878906 L 41.714844 30.214844 L 35.773438 30.214844 Z M 35.773438 24.878906 "/>
<path style=" stroke:none;fill-rule:nonzero;fill:rgb(0%,0%,0%);fill-opacity:1;" d="M 28.75 11.871094 L 34.6875 11.871094 L 34.6875 17.324219 L 28.75 17.324219 Z M 28.75 11.871094 "/>
<path style=" stroke:none;fill-rule:nonzero;fill:rgb(0%,0%,0%);fill-opacity:1;" d="M 14.71875 18.402344 L 20.65625 18.402344 L 20.65625 23.800781 L 14.71875 23.800781 Z M 14.71875 18.402344 "/>
<path style=" stroke:none;fill-rule:nonzero;fill:rgb(0%,0%,0%);fill-opacity:1;" d="M 21.734375 24.878906 L 27.671875 24.878906 L 27.671875 30.214844 L 21.734375 30.214844 Z M 21.734375 24.878906 "/>
<path style=" stroke:none;fill-rule:nonzero;fill:rgb(0%,0%,0%);fill-opacity:1;" d="M 59.554688 27.386719 C 58.261719 26.515625 55.277344 26.199219 52.988281 26.632812 C 52.691406 24.476562 51.488281 22.597656 49.296875 20.910156 L 48.039062 20.074219 L 47.203125 21.332031 C 45.550781 23.828125 45.101562 27.945312 46.871094 30.65625 C 46.089844 31.078125 44.550781 31.652344 42.523438 31.617188 L 3.46875 31.617188 C 2.6875 36.183594 3.992188 42.109375 7.421875 46.179688 C 10.753906 50.125 15.75 52.128906 22.28125 52.128906 C 36.421875 52.128906 46.886719 45.613281 51.785156 33.78125 C 53.707031 33.820312 57.855469 33.792969 59.988281 29.722656 C 60.121094 29.5 60.578125 28.535156 60.75 28.1875 Z M 59.554688 27.386719 "/>
<path style=" stroke:none;fill-rule:nonzero;fill:rgb(0%,0%,0%);fill-opacity:1;" d="M 13.648438 24.878906 L 7.710938 24.878906 L 7.710938 30.214844 L 13.648438 30.214844 Z M 13.648438 24.878906 "/>
<path style=" stroke:none;fill-rule:nonzero;fill:rgb(0%,0%,0%);fill-opacity:1;" d="M 14.71875 24.878906 L 20.65625 24.878906 L 20.65625 30.214844 L 14.71875 30.214844 Z M 14.71875 24.878906 "/>
</g>
</svg>
